<?xml version="1.0" encoding="UTF-8"?>
<svg id="logo" xmlns="http://www.w3.org/2000/svg" version="1.1" viewBox="0 0 1820.66 383.09">
  <!-- Generator: Adobe Illustrator 30.2.1, SVG Export Plug-In . SVG Version: 2.1.1 Build 1)  -->
  <defs>
    <style>
      .st0 {
        fill: #fff;
      }

      .st1 {
        fill: #90cae2;
      }

      .st2 {
        fill: #151e23;
      }
    </style>
  </defs>
  <rect id="bg-shape" class="st2" width="519.03" height="383.09"/>
  <g id="letters">
    <g id="K">
      <path class="st1" d="M350.35,200.64l-.33.39c-2.36,2.83-2.58,6.88-.53,9.95l50.54,75.8c3.69,5.53-.28,12.95-6.93,12.95h-17c-2.81,0-5.44-1.42-6.97-3.77l-37.03-56.73c-3.03-4.64-9.66-5.08-13.28-.89h0c-2.44,2.83-2.7,6.94-.63,10.05l42.11,63.41c1.54,2.32,4.15,3.72,6.94,3.72h58.62c6.69,0,10.65-7.5,6.88-13.02l-69.11-101.22c-3.12-4.57-9.74-4.88-13.27-.63Z"/>
      <path class="st1" d="M359.49,70.71l-124.97,144.98c-1.41,1.64-2.19,3.73-2.19,5.89v8.81c0,4.98,4.04,9.02,9.02,9.02h0c4.98,0,9.02-4.04,9.02-9.02v-3.88c0-2.15.77-4.22,2.16-5.86l113.81-133.42c1.71-2.01,4.22-3.17,6.86-3.17h13.82c7.69,0,11.85,9,6.88,14.86l-111.98,132.09c-1.38,1.63-2.14,3.7-2.14,5.83v54.16c0,4.98-4.04,9.02-9.02,9.02h-11.38c-4.98,0-9.02-4.04-9.02-9.02v-29.33c0-4.98-4.04-9.02-9.02-9.02h-9.02v53.84c0,4.98,4.04,9.02,9.02,9.02h47.67c4.98,0,9.02-4.04,9.02-9.02v-64.4c0-2.11.74-4.16,2.1-5.78l128.54-153.93c4.91-5.88.73-14.81-6.93-14.81h-55.43c-2.63,0-5.12,1.14-6.83,3.13Z"/>
      <path class="st1" d="M279.65,135.92h0c0,2.74,3.42,3.98,5.17,1.88l13.12-15.66c.44-.53.68-1.19.68-1.88v-49.75c0-1.62-1.31-2.93-2.93-2.93h-60.44c-1.62,0-2.93,1.31-2.93,2.93v117.76c0,2.63,3.19,3.93,5.03,2.04l12.78-13.12c.53-.55.83-1.28.83-2.04v-88.16c0-1.62,1.31-2.93,2.93-2.93h22.83c1.62,0,2.93,1.31,2.93,2.93"/>
    </g>
    <path id="L" class="st1" d="M150.73,245V75.32c0-4.28-3.47-7.75-7.75-7.75h-50.41c-4.28,0-7.75,3.47-7.75,7.75v232.44c0,4.28,3.47,7.75,7.75,7.75h117.89c4.28,0,7.75-3.47,7.75-7.75h0c0-4.28-3.47-7.75-7.75-7.75h-99.84c-4.28,0-7.75-3.47-7.75-7.75V91.21c0-4.28,3.47-7.75,7.75-7.75h15.1c4.28,0,7.75,3.47,7.75,7.75v170.46c0,4.28,3.47,7.75,7.75,7.75h83.37c4.28,0,7.75,3.47,7.75,7.75v30.6c0,4.28,3.47,7.75,7.75,7.75h2.55c4.28,0,7.75-3.47,7.75-7.75v-47.27c0-4.28-3.47-7.75-7.75-7.75h-84.15c-4.28,0-7.75-3.47-7.75-7.75Z"/>
  </g>
  <g id="name">
    <path class="st2" d="M512.7,118.85h11.45c4.92,0,8.91,3.99,8.91,8.91v101.98c0,4.92,3.99,8.91,8.91,8.91h31.22c4.92,0,8.91,3.99,8.91,8.91v7.76c0,4.92-3.99,8.91-8.91,8.91h-60.49c-4.92,0-8.91-3.99-8.91-8.91v-127.57c0-4.92,3.99-8.91,8.91-8.91Z"/>
    <path class="st0" d="M524.15,118.85c4.92,0,8.91,3.99,8.91,8.91v101.98c0,4.92,3.99,8.91,8.91,8.91h31.22c4.92,0,8.91,3.99,8.91,8.91v7.76c0,4.92-3.99,8.91-8.91,8.91h-60.49c-4.92,0-8.91-3.99-8.91-8.91v-127.57c0-4.92,3.99-8.91,8.91-8.91h11.45M524.15,98.85h-11.45c-15.94,0-28.91,12.97-28.91,28.91v127.57c0,15.94,12.97,28.91,28.91,28.91h60.49c15.94,0,28.91-12.97,28.91-28.91v-7.76c0-15.94-12.97-28.91-28.91-28.91h-20.13v-90.89c0-15.94-12.97-28.91-28.91-28.91h0Z"/>
    <path class="st2" d="M689.91,236.71h-53.34c-3.72,0-7.05,2.31-8.35,5.8l-5.95,15.94c-1.3,3.49-4.63,5.8-8.35,5.8h-12.23c-6.31,0-10.62-6.38-8.27-12.23l51.2-127.57c1.36-3.38,4.63-5.59,8.27-5.59h20.71c3.64,0,6.92,2.21,8.27,5.59l51.2,127.57c2.35,5.86-1.96,12.23-8.27,12.23h-12.23c-3.72,0-7.05-2.31-8.35-5.8l-5.95-15.94c-1.3-3.49-4.63-5.8-8.35-5.8ZM682.71,200.66l-11.06-29.76c-2.87-7.73-13.81-7.75-16.7-.02l-11.15,29.76c-2.18,5.83,2.12,12.04,8.35,12.04h22.21c6.21,0,10.52-6.19,8.35-12.02Z"/>
    <path class="st2" d="M843.02,264.24h-12.19c-3.34,0-6.39-1.86-7.92-4.83l-26.81-51.99c-1.53-2.96-4.59-4.83-7.92-4.83h0c-4.92,0-8.91,3.99-8.91,8.91v43.82c0,4.92-3.99,8.91-8.91,8.91h-11.45c-4.92,0-8.91-3.99-8.91-8.91v-127.57c0-4.92,3.99-8.91,8.91-8.91h51.18c12.02,0,22.2,4.2,30.53,12.6,8.34,8.4,12.5,18.67,12.5,30.82,0,9.43-2.81,17.61-8.43,24.52-3.62,4.45-7.92,7.95-12.91,10.5-4.56,2.33-6.4,7.87-3.91,12.35l22.95,41.36c3.3,5.94-1,13.24-7.79,13.24ZM821.52,174.78c3.36-3.42,5.04-7.66,5.04-12.7s-1.71-9.27-5.14-12.7c-3.42-3.42-7.59-5.14-12.5-5.14h-20.75c-4.92,0-8.91,3.99-8.91,8.91v17.84c0,4.92,3.99,8.91,8.91,8.91h20.75c5.04,0,9.24-1.71,12.6-5.14Z"/>
    <path class="st2" d="M958.79,236.71h-53.34c-3.72,0-7.05,2.31-8.35,5.8l-5.95,15.94c-1.3,3.49-4.63,5.8-8.35,5.8h-12.23c-6.31,0-10.62-6.38-8.27-12.23l51.2-127.57c1.36-3.38,4.63-5.59,8.27-5.59h20.71c3.64,0,6.92,2.21,8.27,5.59l51.2,127.57c2.35,5.86-1.96,12.23-8.27,12.23h-12.23c-3.72,0-7.05-2.31-8.35-5.8l-5.95-15.94c-1.3-3.49-4.63-5.8-8.35-5.8ZM951.59,200.66l-11.06-29.76c-2.87-7.73-13.81-7.75-16.7-.02l-11.15,29.76c-2.18,5.83,2.12,12.04,8.35,12.04h22.21c6.21,0,10.52-6.19,8.35-12.02Z"/>
    <path class="st2" d="M1132.32,188.38l47.3,43.75c1.82,1.69,2.86,4.06,2.86,6.54v14.52c0,7.83-9.37,11.85-15.05,6.47l-56.75-53.84c-5.68-5.39-15.05-1.36-15.05,6.47v43.04c0,4.92-3.99,8.91-8.91,8.91h-11.45c-4.92,0-8.91-3.99-8.91-8.91v-127.57c0-4.92,3.99-8.91,8.91-8.91h11.45c4.92,0,8.91,3.99,8.91,8.91v25.25c0,8.09,9.92,12,15.43,6.08l34.85-37.4c1.69-1.81,4.05-2.84,6.52-2.84h12.76c7.83,0,11.86,9.38,6.46,15.06l-39.74,41.79c-3.43,3.6-3.24,9.31.41,12.69Z"/>
    <path class="st2" d="M1295.49,264.24h-12.19c-3.34,0-6.39-1.86-7.92-4.83l-26.81-51.99c-1.53-2.96-4.59-4.83-7.92-4.83h0c-4.92,0-8.91,3.99-8.91,8.91v43.82c0,4.92-3.99,8.91-8.91,8.91h-11.45c-4.92,0-8.91-3.99-8.91-8.91v-127.57c0-4.92,3.99-8.91,8.91-8.91h51.18c12.02,0,22.2,4.2,30.53,12.6,8.34,8.4,12.5,18.67,12.5,30.82,0,9.43-2.81,17.61-8.43,24.52-3.62,4.45-7.92,7.95-12.91,10.5-4.56,2.33-6.4,7.87-3.91,12.35l22.95,41.36c3.3,5.94-1,13.24-7.79,13.24ZM1273.99,174.78c3.36-3.42,5.04-7.66,5.04-12.7s-1.71-9.27-5.14-12.7c-3.42-3.42-7.59-5.14-12.5-5.14h-20.75c-4.92,0-8.91,3.99-8.91,8.91v17.84c0,4.92,3.99,8.91,8.91,8.91h20.75c5.04,0,9.24-1.71,12.6-5.14Z"/>
    <path class="st2" d="M1350.56,153.16v16.68c0,4.92,3.99,8.91,8.91,8.91h31.03c4.92,0,8.91,3.99,8.91,8.91v7.76c0,4.92-3.99,8.91-8.91,8.91h-31.03c-4.92,0-8.91,3.99-8.91,8.91v16.49c0,4.92,3.99,8.91,8.91,8.91h39.17c4.92,0,8.91,3.99,8.91,8.91v7.76c0,4.92-3.99,8.91-8.91,8.91h-68.44c-4.92,0-8.91-3.99-8.91-8.91v-127.57c0-4.92,3.99-8.91,8.91-8.91h68.44c4.92,0,8.91,3.99,8.91,8.91v7.57c0,4.92-3.99,8.91-8.91,8.91h-39.17c-4.92,0-8.91,3.99-8.91,8.91Z"/>
    <path class="st2" d="M1455.24,153.16v16.68c0,4.92,3.99,8.91,8.91,8.91h31.03c4.92,0,8.91,3.99,8.91,8.91v7.76c0,4.92-3.99,8.91-8.91,8.91h-31.03c-4.92,0-8.91,3.99-8.91,8.91v42.08c0,4.92-3.99,8.91-8.91,8.91h-11.45c-4.92,0-8.91-3.99-8.91-8.91v-127.57c0-4.92,3.99-8.91,8.91-8.91h68.44c4.92,0,8.91,3.99,8.91,8.91v7.57c0,4.92-3.99,8.91-8.91,8.91h-39.17c-4.92,0-8.91,3.99-8.91,8.91Z"/>
    <path class="st2" d="M1549.94,258.81c-7.24-3.46-13.47-7.72-18.69-12.79-3.58-3.47-3.58-9.22-.04-12.73l7.12-7.05c3.56-3.52,9.26-3.37,12.75.22,8.16,8.38,18.99,12.57,32.49,12.57,6.98,0,12.57-1.29,16.77-3.88,4.2-2.58,6.37-6.53,6.49-11.83,0-2.58-.68-5.04-2.04-7.37-1.36-2.33-2.84-4.23-4.46-5.72-1.62-1.49-4.23-3.17-7.85-5.04-3.62-1.87-6.49-3.23-8.63-4.07-2.13-.84-5.53-2.16-10.18-3.97-5.04-1.94-9.05-3.59-12.02-4.94-2.97-1.36-6.53-3.26-10.66-5.72-4.14-2.46-7.33-4.94-9.6-7.46-2.26-2.52-4.23-5.69-5.91-9.5-1.68-3.81-2.52-7.98-2.52-12.5,0-12.02,4.62-21.71,13.86-29.08,9.24-7.37,20.97-11.05,35.18-11.05,18.34,0,33.6,4.74,45.77,14.22,4.29,3.34,4.67,9.69.77,13.48l-6.06,5.87c-3.27,3.17-8.36,3.33-11.89.45-7.84-6.4-17.11-9.6-27.82-9.6-5.82,0-10.57,1.33-14.25,3.97-3.68,2.65-5.53,6.17-5.53,10.57,0,2.33.65,4.46,1.94,6.4,1.29,1.94,3.46,3.81,6.49,5.62,3.04,1.81,5.75,3.23,8.14,4.27,2.39,1.03,5.98,2.52,10.76,4.46,4.78,1.94,8.4,3.42,10.86,4.46,2.46,1.03,5.85,2.65,10.18,4.85,4.33,2.2,7.69,4.36,10.08,6.49,2.39,2.13,4.91,4.72,7.56,7.75,2.65,3.04,4.56,6.46,5.72,10.28,1.16,3.81,1.74,7.98,1.74,12.5,0,14.09-5.04,24.81-15.12,32.18-10.08,7.37-23,11.05-38.77,11.05-11.5,0-22.39-2.46-32.67-7.37Z"/>
    <path class="st2" d="M1721.26,188.38l47.3,43.75c1.82,1.69,2.86,4.06,2.86,6.54v14.52c0,7.83-9.37,11.85-15.05,6.47l-56.75-53.84c-5.68-5.39-15.05-1.36-15.05,6.47v43.04c0,4.92-3.99,8.91-8.91,8.91h-11.45c-4.92,0-8.91-3.99-8.91-8.91v-127.57c0-4.92,3.99-8.91,8.91-8.91h11.45c4.92,0,8.91,3.99,8.91,8.91v25.25c0,8.09,9.92,12,15.43,6.08l34.85-37.4c1.69-1.81,4.05-2.84,6.52-2.84h12.76c7.83,0,11.86,9.38,6.46,15.06l-39.74,41.79c-3.43,3.6-3.24,9.31.41,12.69Z"/>
    <path class="st2" d="M1800.31,118.85h11.45c4.92,0,8.91,3.99,8.91,8.91v127.57c0,4.92-3.99,8.91-8.91,8.91h-11.45c-4.92,0-8.91-3.99-8.91-8.91v-127.57c0-4.92,3.99-8.91,8.91-8.91Z"/>
  </g>
</svg>